<svg width="971" height="1532" viewBox="0 0 971 1532" fill="none" xmlns="http://www.w3.org/2000/svg">
<path d="M445.658 891H384.757V850H411.611C455.77 839.768 494.128 804.054 519.417 753.483C514.914 746.509 512.686 738.001 513.653 729.104L533.331 548.171C534.587 536.616 540.968 526.861 549.964 520.92C539.58 434.676 469.883 368 385.449 368C385.218 368 384.987 368 384.757 368.001V340.002C385.037 340.001 385.318 340 385.599 340C481.134 340 559.756 416.526 569.568 514.736C571.247 514.691 572.949 514.759 574.665 514.946C595.255 517.185 610.13 535.691 607.891 556.28L588.214 737.213C585.974 757.803 567.468 772.678 546.879 770.439C543.101 770.028 539.516 769.07 536.193 767.651C518.136 804.579 493.884 834.587 465.658 854.429V871C465.658 882.046 456.703 891 445.658 891Z" fill="#00D9FF"/>
<path d="M318.904 354.266C339.816 345.344 362.149 340.524 384.757 340.04V617.036H198.379L212.385 675.435C215.838 689.831 207.14 704.943 192.958 709.189C178.775 713.434 164.479 705.205 161.026 690.809L138.414 596.53C134.961 582.134 143.659 567.022 157.842 562.777C163.16 561.185 168.494 561.347 173.266 562.93C175.633 555.024 178.523 547.242 181.924 539.629C188.995 523.803 198.19 508.909 209.263 495.289C211.552 481.742 215.287 468.463 220.421 455.698C229.566 432.959 242.97 412.297 259.868 394.894C276.765 377.49 296.826 363.685 318.904 354.266Z" fill="#00D9FF"/>
<path d="M383.349 744.521C383.819 744.521 384.288 744.52 384.757 744.519V832.623H342.429C340.22 832.623 338.429 834.413 338.429 836.623V846.033C338.429 848.243 340.22 850.033 342.429 850.033H384.757L384.757 891L335.433 891L273.428 820.345C250.633 815.473 235.493 809.088 231.962 802H231.17V712.105C231.17 730.008 299.303 744.521 383.349 744.521Z" fill="#00D9FF"/>
<path d="M231.17 712.105V711.771H231.178C231.173 711.882 231.17 711.994 231.17 712.105Z" fill="#00D9FF"/>
<path d="M446.481 340.168L388.57 0L330.658 340.168C348.774 334.878 368.266 332 388.57 332C408.873 332 428.365 334.878 446.481 340.168Z" fill="#00D9FF"/>
<path d="M566.557 435.256L634.964 284.95L484.658 353.357C499.169 364.466 513.876 377.324 528.233 391.681C542.59 406.038 555.448 420.746 566.557 435.256Z" fill="#00D9FF"/>
<path d="M292.914 353.357L142.607 284.95L211.015 435.256C222.124 420.746 234.981 406.038 249.338 391.681C263.695 377.324 278.403 364.466 292.914 353.357Z" fill="#00D9FF"/>
<path d="M306.123 941.892L342.057 908H436.258L472.564 942.242C567.797 958.889 650.03 1003.17 705.338 1064H418.658C393.253 1064 372.658 1084.59 372.658 1110V1209H0C19.9799 1076.4 144.558 969.414 306.123 941.892Z" fill="#00D9FF"/>
<path fill-rule="evenodd" clip-rule="evenodd" d="M458.658 1094C433.253 1094 412.658 1114.59 412.658 1140V1486C412.658 1511.41 433.253 1532 458.658 1532H924.658C950.063 1532 970.658 1511.41 970.658 1486V1140C970.658 1114.59 950.063 1094 924.658 1094H458.658ZM636.93 1428L703.53 1218H743.43L675.63 1428H636.93ZM612.058 1384.8L525.658 1341.3V1311.3L612.058 1267.8L627.358 1298.7L566.458 1326.3L627.358 1353.9L612.058 1384.8ZM770.059 1384.8L856.459 1341.3V1311.3L770.059 1267.8L754.759 1298.7L815.659 1326.3L754.759 1353.9L770.059 1384.8Z" fill="#00D9FF"/>
</svg>
